<?xml version="1.0" encoding="UTF-8" standalone="no"?>
<!-- Created with Inkscape (http://www.inkscape.org/) -->

<svg
   xmlns:dc="http://purl.org/dc/elements/1.1/"
   xmlns:cc="http://creativecommons.org/ns#"
   xmlns:rdf="http://www.w3.org/1999/02/22-rdf-syntax-ns#"
   xmlns:svg="http://www.w3.org/2000/svg"
   xmlns="http://www.w3.org/2000/svg"
   xmlns:sodipodi="http://sodipodi.sourceforge.net/DTD/sodipodi-0.dtd"
   xmlns:inkscape="http://www.inkscape.org/namespaces/inkscape"
   id="svg3039"
   version="1.1"
   inkscape:version="0.48.3.1 r9886"
   width="95.271927"
   height="24.002968"
   sodipodi:docname="Con_Landing_L3_Atmos.svg">
  <title
     id="title3848">Dolby Atmos Logo</title>
  <metadata
     id="metadata3045">
    <rdf:RDF>
      <cc:Work
         rdf:about="">
        <dc:format>image/svg+xml</dc:format>
        <dc:type
           rdf:resource="http://purl.org/dc/dcmitype/StillImage" />
        <dc:title>Dolby Atmos Logo</dc:title>
        <dc:date>2013-01-25</dc:date>
        <dc:creator>
          <cc:Agent>
            <dc:title>Dolby Laboratories Inc.</dc:title>
          </cc:Agent>
        </dc:creator>
        <dc:contributor>
          <cc:Agent>
            <dc:title>Dolby Laboratories Inc.
SVG logo by Timothy Gu. See en.wikipedia.org/wiki/User:Timothy_Gu for more info</dc:title>
          </cc:Agent>
        </dc:contributor>
        <dc:source>http://www.dolby.com/uploadedImages/Assets/Global/Landing/Logos/Con_Landing_L3_Atmos.png</dc:source>
        <cc:license
           rdf:resource="http://www.dolby.com" />
      </cc:Work>
    </rdf:RDF>
  </metadata>
  <defs
     id="defs3043" />
  <sodipodi:namedview
     pagecolor="#ffffff"
     bordercolor="#666666"
     borderopacity="1"
     objecttolerance="10"
     gridtolerance="10"
     guidetolerance="10"
     inkscape:pageopacity="0"
     inkscape:pageshadow="2"
     inkscape:window-width="1366"
     inkscape:window-height="681"
     id="namedview3041"
     showgrid="false"
     inkscape:zoom="3.9111111"
     inkscape:cx="18.346186"
     inkscape:cy="7.6649914"
     inkscape:window-x="0"
     inkscape:window-y="0"
     inkscape:window-maximized="0"
     inkscape:current-layer="svg3039"
     fit-margin-right="1.4"
     fit-margin-top="0"
     fit-margin-left="0"
     fit-margin-bottom="0" />
  <path
     inkscape:connector-curvature="0"
     id="path265"
     d="m 30.091913,20.858694 h -3.901952 c -4.035668,0 -7.407387,-3.983732 -7.407387,-8.906785 0,-4.785393 3.371719,-8.836699 7.407387,-8.836699 h 3.901952 v 17.743484 z m -22.179996,0 H 4.02267 V 3.11549 h 3.888958 c 4.033646,0 7.407676,4.051305 7.407676,8.836699 2.88e-4,4.923051 -3.373741,8.906505 -7.407387,8.906505 M 0,23.965372 H 34.109098 V 0.003225 H 0 v 23.962147 z" />
  <path
     inkscape:connector-curvature="0"
     id="path263"
     d="M 91.336017,0.204076 88.413477,5.56047 85.584599,0.204076 h -2.646365 c 0.491384,0.905285 3.954541,7.501321 3.954541,7.501321 v 4.346034 h 2.847492 c 0,-0.588541 0,-4.331761 0,-4.331761 0,0 3.59794,-6.603021 4.10823,-7.515594 h -2.51248 l 0,0 z" />
  <path
     inkscape:connector-curvature="0"
     id="path267"
     d="M 60.714542,0.863377 C 59.906763,0.297308 58.546956,0 56.781009,0 55.054985,0 53.80144,0.239001 52.842972,0.870665 51.836774,1.522372 51.366095,2.623534 51.366095,4.338746 V 8.0683 c 0,1.727056 0.489591,2.886828 1.467572,3.465955 0.788567,0.555137 2.072428,0.819039 3.947342,0.819039 1.850897,0 3.172882,-0.271191 3.928731,-0.804765 0.977378,-0.613747 1.487381,-1.811784 1.487381,-3.480229 V 4.338746 c 0,-1.633824 -0.498294,-2.803012 -1.482579,-3.475369 m -1.171595,7.04154 c 0,2.100589 -0.722229,2.584359 -2.761938,2.584359 -2.035509,0 -2.762541,-0.48377 -2.762541,-2.584359 V 4.355448 c 0,-2.049265 0.727032,-2.492341 2.762541,-2.492341 2.039709,0 2.761938,0.443076 2.761938,2.492341 v 3.549469 z" />
  <path
     inkscape:connector-curvature="0"
     id="path269"
     d="M 45.023031,0.204076 H 39.15605 v 11.850695 h 6.279126 c 3.091535,0 4.24542,-1.276387 4.24542,-4.713493 V 4.736573 c 0,-3.260664 -1.305776,-4.532497 -4.657565,-4.532497 m 2.034308,7.421148 c 0,2.075686 -1.09565,2.60015 -2.011494,2.60015 H 41.800019 V 1.942976 h 3.245826 c 0.915844,0 2.011494,0.523249 2.011494,2.452863 v 3.229385 z" />
  <polygon
     transform="matrix(0.3001781,0,0,0.30368486,0.172821,-1.458294)"
     id="polygon271"
     points="238.164,37.997 221.898,37.997 221.898,5.474 213.09,5.474 213.09,44.493 238.164,44.493 " />
  <path
     inkscape:connector-curvature="0"
     id="path273"
     d="m 92.518707,11.021939 h 0.21974 l 0.3401,0.564854 h 0.21463 l -0.36352,-0.570927 c 0.19121,-0.02399 0.3329,-0.126637 0.3329,-0.354705 0,-0.256917 -0.14648,-0.371407 -0.45327,-0.371407 h -0.48899 v 1.297039 h 0.19812 v -0.564854 z m 0,-0.568498 h 0.26206 c 0.22693,0 0.28368,0.06955 0.28368,0.191321 0,0.144555 -0.0733,0.214705 -0.31669,0.214705 h -0.22934 v -0.406026 l 2.9e-4,0 z m -0.89002,0.482555 c 0,0.6511 0.51481,1.122724 1.12387,1.122724 0.60455,0 1.11937,-0.471927 1.11937,-1.122724 0,-0.645938 -0.51482,-1.117864 -1.11937,-1.117864 -0.60906,0 -1.12387,0.471926 -1.12387,1.117864 m 2.031,0 c 0,0.548454 -0.39683,0.94112 -0.90683,0.94112 -0.51481,0 -0.91105,-0.392666 -0.91105,-0.94112 0,-0.536307 0.39624,-0.942334 0.91105,-0.942334 0.5097,0 0.90683,0.406027 0.90683,0.942334" />
  <path
     inkscape:connector-curvature="0"
     id="path275"
     d="m 78.142888,10.330145 h -2.386723 v -0.01185 -8.40873 -0.007 h 2.598944 c 0.883426,0 1.433349,0.709407 1.433349,1.676644 0,1.485627 -0.712922,1.521461 -2.740925,1.59556 v 1.374478 c 1.807977,-0.007 3.262638,-0.118437 3.262638,1.778074 3.03e-4,0.953268 -0.601856,2.002802 -2.167283,2.002802 m 1.402427,-4.546162 c 2.077832,-0.191322 2.526299,-1.22294 2.526299,-2.700366 0,-1.309185 -0.545125,-1.974256 -1.142778,-2.347787 C 80.428141,0.419075 79.833188,0.20437 78.588948,0.20437 h -5.474652 v 11.848266 h 5.547899 c 1.704409,0 2.413127,-0.337698 2.745423,-0.56698 0.564638,-0.382339 1.294076,-1.225369 1.294076,-2.576159 2.92e-4,-1.592523 -0.545126,-3.18444 -3.156379,-3.125524" />
  <path
     inkscape:connector-curvature="0"
     id="path259"
     d="m 77.936101,23.813202 h -2.333089 c -0.53706,0 -1.267886,-0.111294 -1.602262,-0.500466 V 22.38046 h 3.80846 c 0.350152,0 0.498991,-0.19296 0.498991,-0.539853 v -0.830014 c 0,-0.403265 -0.11866,-0.562619 -0.582671,-0.636695 L 75.813241,20.095299 C 74.47505,19.896197 73.973314,19.492933 73.973314,18.282058 v -1.313136 c 0,-1.222439 0.621082,-1.944049 2.223002,-1.944049 h 1.86599 c 0.53466,0 1.300124,0.136228 1.591632,0.505525 v 0.966604 h -3.576969 c -0.371758,0 -0.496248,0.14201 -0.496248,0.57382 v 0.773283 c 0,0.414827 0.23252,0.548887 0.59879,0.596946 l 2.220602,0.306784 c 1.172888,0.158993 1.566595,0.540214 1.566595,1.810712 v 1.355775 c 3.43e-4,1.27375 -0.520256,1.89888 -2.030607,1.89888" />
  <path
     d="m 49.42599,16.931115 -2.514333,0 0,-1.947694 7.010568,0 0,1.947694 -2.48891,0 0,7.033826 -2.007325,0 z"
     id="polygon247"
     inkscape:connector-curvature="0"
     sodipodi:nodetypes="ccccccccc" />
  <path
     d="m 71.591483,15.371745 c -0.539262,-0.42523 -1.447051,-0.648568 -2.625973,-0.648568 -1.152272,0 -1.989121,0.179537 -2.628982,0.654044 -0.671724,0.489562 -0.985943,1.316754 -0.985943,2.60522 v 2.80164 c 0,1.297364 0.326844,2.168584 0.979732,2.603625 0.526436,0.417018 1.383524,0.615261 2.635193,0.615261 1.235634,0 2.118174,-0.203718 2.622768,-0.604539 0.652484,-0.461047 0.992956,-1.361011 0.992956,-2.614347 v -2.80164 c 0,-1.227327 -0.332655,-2.105621 -0.989751,-2.610696 m -0.78214,5.289603 c 0,1.577961 -0.482151,1.941369 -1.843833,1.941369 -1.35888,0 -1.844236,-0.363408 -1.844236,-1.941369 v -2.66636 c 0,-1.539407 0.485356,-1.872246 1.844236,-1.872246 1.361682,0 1.843833,0.332839 1.843833,1.872246 v 2.66636 z"
     id="path3051"
     inkscape:connector-curvature="0" />
  <path
     style="fill:#000000;fill-opacity:1;stroke:none"
     d="m 41.929325,15.005429 -3.21875,8.925682 1.850142,0 0.75,-1.989923 3.375,0 0.75,1.989923 1.819602,0 -3.152897,-8.925682 z m 1.068892,2.458431 0.9375,2.518497 -1.933175,0.01195 z"
     id="path3056"
     inkscape:connector-curvature="0"
     sodipodi:nodetypes="ccccccccccccc" />
  <path
     inkscape:connector-curvature="0"
     id="path3836"
     style="font-size:4px;font-style:normal;font-weight:bold;line-height:125%;letter-spacing:0px;word-spacing:0px;fill:#000000;fill-opacity:1;stroke:none;font-family:Sans;-inkscape-font-specification:Sans Bold"
     d="m 54.956836,14.947169 2.239866,0 2.09381,4.719903 2.285601,-4.719903 2.279548,0 0,8.988459 -1.773648,0 -0.0452,-6.438684 -2.296591,4.982021 -0.88844,0 -2.025386,-4.394439 0,5.851102 -1.869561,0 0,-8.988459"
     sodipodi:nodetypes="cccccccccccccc" />
  <g
     id="g3844"
     transform="matrix(0.22257282,0,0,0.22257282,67.951848,7.553238)">
    <path
       d="m 62.490273,35.000004 -2.514333,0 0,-1.947694 7.010568,0 0,1.947694 -2.48891,0 0,7.033826 -2.007325,0 z"
       id="path3840"
       inkscape:connector-curvature="0"
       sodipodi:nodetypes="ccccccccc" />
    <path
       inkscape:connector-curvature="0"
       id="path3842"
       style="font-size:4px;font-style:normal;font-weight:bold;line-height:125%;letter-spacing:0px;word-spacing:0px;fill:#000000;fill-opacity:1;stroke:none;font-family:Sans;-inkscape-font-specification:Sans Bold"
       d="m 68.021119,33.016058 2.239866,0 2.09381,4.719903 2.285601,-4.719903 2.279548,0 0,8.988459 -1.773648,0 -0.0452,-6.438684 -2.296591,4.982021 -0.88844,0 -2.025386,-4.394439 0,5.851102 -1.869561,0 0,-8.988459"
       sodipodi:nodetypes="cccccccccccccc" />
  </g>
</svg>
